<?xml version="1.0" encoding="UTF-8" standalone="no"?>
<!DOCTYPE svg PUBLIC "-//W3C//DTD SVG 1.1//EN" "http://www.w3.org/Graphics/SVG/1.1/DTD/svg11.dtd">
<svg width="100%" height="100%" viewBox="0 0 126 47" version="1.1" xmlns="http://www.w3.org/2000/svg" xmlns:xlink="http://www.w3.org/1999/xlink" xml:space="preserve" xmlns:serif="http://www.serif.com/" style="fill-rule:evenodd;clip-rule:evenodd;stroke-linejoin:round;stroke-miterlimit:2;">
    <g transform="matrix(1,0,0,1,-152.215,-37.0378)">
        <g transform="matrix(1,0,0,3.49758,0,0)">
            <g transform="matrix(1.29284,0,0,0.369637,-958.807,-162.216)">
                <path d="M898.483,472.498L900.641,472.498C901.377,472.498 901.915,472.669 902.253,473.011C902.591,473.353 902.76,473.88 902.76,474.591L902.76,474.955C902.76,475.423 902.684,475.804 902.532,476.099C902.38,476.393 902.149,476.606 901.837,476.736L901.837,476.762C902.547,477.004 902.903,477.637 902.903,478.66L902.903,479.44C902.903,480.142 902.718,480.677 902.35,481.045C901.982,481.413 901.442,481.598 900.732,481.598L898.483,481.598L898.483,472.498ZM900.472,476.203C900.758,476.203 900.972,476.129 901.115,475.982C901.258,475.834 901.33,475.587 901.33,475.241L901.33,474.734C901.33,474.404 901.271,474.166 901.154,474.019C901.037,473.871 900.853,473.798 900.602,473.798L899.913,473.798L899.913,476.203L900.472,476.203ZM900.732,480.298C900.983,480.298 901.169,480.23 901.291,480.096C901.412,479.962 901.473,479.73 901.473,479.401L901.473,478.608C901.473,478.192 901.401,477.903 901.258,477.743C901.115,477.583 900.879,477.503 900.55,477.503L899.913,477.503L899.913,480.298L900.732,480.298Z" style="fill:rgb(242,242,242);"/>
                <path d="M907.245,481.728C906.551,481.728 906.023,481.53 905.659,481.136C905.295,480.742 905.113,480.176 905.113,479.44L905.113,472.498L906.543,472.498L906.543,479.544C906.543,479.856 906.605,480.081 906.731,480.22C906.857,480.358 907.037,480.428 907.271,480.428C907.505,480.428 907.684,480.358 907.81,480.22C907.936,480.081 907.999,479.856 907.999,479.544L907.999,472.498L909.377,472.498L909.377,479.44C909.377,480.176 909.195,480.742 908.831,481.136C908.467,481.53 907.938,481.728 907.245,481.728Z" style="fill:rgb(242,242,242);"/>
                <path d="M913.68,481.728C912.986,481.728 912.462,481.53 912.107,481.136C911.751,480.742 911.574,480.176 911.574,479.44L911.574,478.92L912.926,478.92L912.926,479.544C912.926,480.133 913.173,480.428 913.667,480.428C913.909,480.428 914.093,480.356 914.219,480.213C914.345,480.07 914.408,479.838 914.408,479.518C914.408,479.136 914.321,478.8 914.148,478.51C913.974,478.22 913.654,477.871 913.186,477.464C912.596,476.944 912.185,476.473 911.951,476.053C911.717,475.633 911.6,475.158 911.6,474.63C911.6,473.91 911.782,473.353 912.146,472.959C912.51,472.565 913.038,472.368 913.732,472.368C914.416,472.368 914.934,472.565 915.285,472.959C915.636,473.353 915.812,473.919 915.812,474.656L915.812,475.033L914.46,475.033L914.46,474.565C914.46,474.253 914.399,474.025 914.278,473.882C914.156,473.739 913.979,473.668 913.745,473.668C913.268,473.668 913.03,473.958 913.03,474.539C913.03,474.868 913.118,475.176 913.296,475.462C913.474,475.748 913.797,476.094 914.265,476.502C914.863,477.022 915.274,477.494 915.5,477.919C915.725,478.343 915.838,478.842 915.838,479.414C915.838,480.159 915.653,480.731 915.285,481.13C914.917,481.528 914.382,481.728 913.68,481.728Z" style="fill:rgb(242,242,242);"/>
                <rect x="918.087" y="472.498" width="1.43" height="9.1" style="fill:rgb(242,242,242);"/>
                <path d="M922.013,472.498L923.807,472.498L925.198,477.945L925.224,477.945L925.224,472.498L926.498,472.498L926.498,481.598L925.029,481.598L923.313,474.955L923.287,474.955L923.287,481.598L922.013,481.598L922.013,472.498Z" style="fill:rgb(242,242,242);"/>
                <path d="M928.994,472.498L932.894,472.498L932.894,473.798L930.424,473.798L930.424,476.203L932.387,476.203L932.387,477.503L930.424,477.503L930.424,480.298L932.894,480.298L932.894,481.598L928.994,481.598L928.994,472.498Z" style="fill:rgb(242,242,242);"/>
                <path d="M937.028,481.728C936.334,481.728 935.81,481.53 935.455,481.136C935.099,480.742 934.922,480.176 934.922,479.44L934.922,478.92L936.274,478.92L936.274,479.544C936.274,480.133 936.521,480.428 937.015,480.428C937.257,480.428 937.441,480.356 937.567,480.213C937.693,480.07 937.756,479.838 937.756,479.518C937.756,479.136 937.669,478.8 937.496,478.51C937.322,478.22 937.002,477.871 936.534,477.464C935.944,476.944 935.533,476.473 935.299,476.053C935.065,475.633 934.948,475.158 934.948,474.63C934.948,473.91 935.13,473.353 935.494,472.959C935.858,472.565 936.386,472.368 937.08,472.368C937.764,472.368 938.282,472.565 938.633,472.959C938.984,473.353 939.16,473.919 939.16,474.656L939.16,475.033L937.808,475.033L937.808,474.565C937.808,474.253 937.747,474.025 937.626,473.882C937.504,473.739 937.327,473.668 937.093,473.668C936.616,473.668 936.378,473.958 936.378,474.539C936.378,474.868 936.466,475.176 936.644,475.462C936.822,475.748 937.145,476.094 937.613,476.502C938.211,477.022 938.622,477.494 938.848,477.919C939.073,478.343 939.186,478.842 939.186,479.414C939.186,480.159 939.001,480.731 938.633,481.13C938.265,481.528 937.73,481.728 937.028,481.728Z" style="fill:rgb(242,242,242);"/>
                <path d="M943.294,481.728C942.6,481.728 942.076,481.53 941.721,481.136C941.365,480.742 941.188,480.176 941.188,479.44L941.188,478.92L942.54,478.92L942.54,479.544C942.54,480.133 942.787,480.428 943.281,480.428C943.523,480.428 943.707,480.356 943.833,480.213C943.959,480.07 944.022,479.838 944.022,479.518C944.022,479.136 943.935,478.8 943.762,478.51C943.588,478.22 943.268,477.871 942.8,477.464C942.21,476.944 941.799,476.473 941.565,476.053C941.331,475.633 941.214,475.158 941.214,474.63C941.214,473.91 941.396,473.353 941.76,472.959C942.124,472.565 942.652,472.368 943.346,472.368C944.03,472.368 944.548,472.565 944.899,472.959C945.25,473.353 945.426,473.919 945.426,474.656L945.426,475.033L944.074,475.033L944.074,474.565C944.074,474.253 944.013,474.025 943.892,473.882C943.77,473.739 943.593,473.668 943.359,473.668C942.882,473.668 942.644,473.958 942.644,474.539C942.644,474.868 942.732,475.176 942.91,475.462C943.088,475.748 943.411,476.094 943.879,476.502C944.477,477.022 944.888,477.494 945.114,477.919C945.339,478.343 945.452,478.842 945.452,479.414C945.452,480.159 945.267,480.731 944.899,481.13C944.531,481.528 943.996,481.728 943.294,481.728Z" style="fill:rgb(242,242,242);"/>
            </g>
            <g transform="matrix(0.596641,0,0,0.170587,-332.352,-58.2635)">
                <path d="M900.342,481.728C899.648,481.728 899.124,481.53 898.769,481.136C898.413,480.742 898.236,480.176 898.236,479.44L898.236,478.92L899.588,478.92L899.588,479.544C899.588,480.133 899.835,480.428 900.329,480.428C900.571,480.428 900.755,480.356 900.881,480.213C901.007,480.07 901.07,479.838 901.07,479.518C901.07,479.136 900.983,478.8 900.81,478.51C900.636,478.22 900.316,477.871 899.848,477.464C899.258,476.944 898.847,476.473 898.613,476.053C898.379,475.633 898.262,475.158 898.262,474.63C898.262,473.91 898.444,473.353 898.808,472.959C899.172,472.565 899.7,472.368 900.394,472.368C901.078,472.368 901.596,472.565 901.947,472.959C902.298,473.353 902.474,473.919 902.474,474.656L902.474,475.033L901.122,475.033L901.122,474.565C901.122,474.253 901.061,474.025 900.94,473.882C900.818,473.739 900.641,473.668 900.407,473.668C899.93,473.668 899.692,473.958 899.692,474.539C899.692,474.868 899.78,475.176 899.958,475.462C900.136,475.748 900.459,476.094 900.927,476.502C901.525,477.022 901.936,477.494 902.162,477.919C902.387,478.343 902.5,478.842 902.5,479.414C902.5,480.159 902.315,480.731 901.947,481.13C901.579,481.528 901.044,481.728 900.342,481.728Z" style="fill:rgb(242,242,242);"/>
                <path d="M906.829,481.728C906.135,481.728 905.607,481.53 905.243,481.136C904.879,480.742 904.697,480.176 904.697,479.44L904.697,472.498L906.127,472.498L906.127,479.544C906.127,479.856 906.189,480.081 906.315,480.22C906.441,480.358 906.621,480.428 906.855,480.428C907.089,480.428 907.268,480.358 907.394,480.22C907.52,480.081 907.583,479.856 907.583,479.544L907.583,472.498L908.961,472.498L908.961,479.44C908.961,480.176 908.779,480.742 908.415,481.136C908.051,481.53 907.522,481.728 906.829,481.728Z" style="fill:rgb(242,242,242);"/>
                <path d="M911.405,472.498L913.511,472.498C914.221,472.498 914.754,472.688 915.11,473.07C915.465,473.451 915.643,474.01 915.643,474.747L915.643,475.644C915.643,476.38 915.465,476.939 915.11,477.321C914.754,477.702 914.221,477.893 913.511,477.893L912.835,477.893L912.835,481.598L911.405,481.598L911.405,472.498ZM913.511,476.593C913.745,476.593 913.92,476.528 914.037,476.398C914.154,476.268 914.213,476.047 914.213,475.735L914.213,474.656C914.213,474.344 914.154,474.123 914.037,473.993C913.92,473.863 913.745,473.798 913.511,473.798L912.835,473.798L912.835,476.593L913.511,476.593Z" style="fill:rgb(242,242,242);"/>
                <path d="M917.853,472.498L919.959,472.498C920.669,472.498 921.202,472.688 921.558,473.07C921.913,473.451 922.091,474.01 922.091,474.747L922.091,475.644C922.091,476.38 921.913,476.939 921.558,477.321C921.202,477.702 920.669,477.893 919.959,477.893L919.283,477.893L919.283,481.598L917.853,481.598L917.853,472.498ZM919.959,476.593C920.193,476.593 920.368,476.528 920.485,476.398C920.602,476.268 920.661,476.047 920.661,475.735L920.661,474.656C920.661,474.344 920.602,474.123 920.485,473.993C920.368,473.863 920.193,473.798 919.959,473.798L919.283,473.798L919.283,476.593L919.959,476.593Z" style="fill:rgb(242,242,242);"/>
                <path d="M926.368,481.728C925.666,481.728 925.128,481.528 924.756,481.13C924.383,480.731 924.197,480.168 924.197,479.44L924.197,474.656C924.197,473.928 924.383,473.364 924.756,472.966C925.128,472.567 925.666,472.368 926.368,472.368C927.07,472.368 927.607,472.567 927.98,472.966C928.352,473.364 928.539,473.928 928.539,474.656L928.539,479.44C928.539,480.168 928.352,480.731 927.98,481.13C927.607,481.528 927.07,481.728 926.368,481.728ZM926.368,480.428C926.862,480.428 927.109,480.129 927.109,479.531L927.109,474.565C927.109,473.967 926.862,473.668 926.368,473.668C925.874,473.668 925.627,473.967 925.627,474.565L925.627,479.531C925.627,480.129 925.874,480.428 926.368,480.428Z" style="fill:rgb(242,242,242);"/>
                <path d="M930.931,472.498L933.05,472.498C933.786,472.498 934.324,472.669 934.662,473.011C935,473.353 935.169,473.88 935.169,474.591L935.169,475.15C935.169,476.094 934.857,476.692 934.233,476.944L934.233,476.97C934.579,477.074 934.824,477.286 934.967,477.607C935.11,477.927 935.182,478.356 935.182,478.894L935.182,480.493C935.182,480.753 935.19,480.963 935.208,481.123C935.225,481.283 935.268,481.442 935.338,481.598L933.882,481.598C933.83,481.45 933.795,481.312 933.778,481.182C933.76,481.052 933.752,480.818 933.752,480.48L933.752,478.816C933.752,478.4 933.684,478.109 933.55,477.945C933.416,477.78 933.184,477.698 932.855,477.698L932.361,477.698L932.361,481.598L930.931,481.598L930.931,472.498ZM932.881,476.398C933.167,476.398 933.381,476.324 933.524,476.177C933.667,476.029 933.739,475.782 933.739,475.436L933.739,474.734C933.739,474.404 933.68,474.166 933.563,474.019C933.446,473.871 933.262,473.798 933.011,473.798L932.361,473.798L932.361,476.398L932.881,476.398Z" style="fill:rgb(242,242,242);"/>
                <path d="M938.692,473.798L937.197,473.798L937.197,472.498L941.617,472.498L941.617,473.798L940.122,473.798L940.122,481.598L938.692,481.598L938.692,473.798Z" style="fill:rgb(242,242,242);"/>
                <rect x="943.736" y="472.498" width="1.43" height="9.1" style="fill:rgb(242,242,242);"/>
                <path d="M947.662,472.498L949.456,472.498L950.847,477.945L950.873,477.945L950.873,472.498L952.147,472.498L952.147,481.598L950.678,481.598L948.962,474.955L948.936,474.955L948.936,481.598L947.662,481.598L947.662,472.498Z" style="fill:rgb(242,242,242);"/>
                <path d="M956.671,481.728C955.977,481.728 955.449,481.53 955.085,481.136C954.721,480.742 954.539,480.176 954.539,479.44L954.539,474.656C954.539,473.919 954.721,473.353 955.085,472.959C955.449,472.565 955.977,472.368 956.671,472.368C957.364,472.368 957.893,472.565 958.257,472.959C958.621,473.353 958.803,473.919 958.803,474.656L958.803,475.436L957.451,475.436L957.451,474.565C957.451,473.967 957.204,473.668 956.71,473.668C956.216,473.668 955.969,473.967 955.969,474.565L955.969,479.544C955.969,480.133 956.216,480.428 956.71,480.428C957.204,480.428 957.451,480.133 957.451,479.544L957.451,477.763L956.736,477.763L956.736,476.463L958.803,476.463L958.803,479.44C958.803,480.176 958.621,480.742 958.257,481.136C957.893,481.53 957.364,481.728 956.671,481.728Z" style="fill:rgb(242,242,242);"/>
                <path d="M964.328,472.498L965.706,472.498L966.343,479.492L966.369,479.492L967.045,472.498L968.605,472.498L969.281,479.492L969.307,479.492L969.944,472.498L971.179,472.498L970.256,481.598L968.475,481.598L967.825,475.462L967.799,475.462L967.149,481.598L965.251,481.598L964.328,472.498Z" style="fill:rgb(242,242,242);"/>
                <path d="M975.404,481.728C974.702,481.728 974.164,481.528 973.792,481.13C973.419,480.731 973.233,480.168 973.233,479.44L973.233,474.656C973.233,473.928 973.419,473.364 973.792,472.966C974.164,472.567 974.702,472.368 975.404,472.368C976.106,472.368 976.643,472.567 977.016,472.966C977.388,473.364 977.575,473.928 977.575,474.656L977.575,479.44C977.575,480.168 977.388,480.731 977.016,481.13C976.643,481.528 976.106,481.728 975.404,481.728ZM975.404,480.428C975.898,480.428 976.145,480.129 976.145,479.531L976.145,474.565C976.145,473.967 975.898,473.668 975.404,473.668C974.91,473.668 974.663,473.967 974.663,474.565L974.663,479.531C974.663,480.129 974.91,480.428 975.404,480.428Z" style="fill:rgb(242,242,242);"/>
                <path d="M979.967,472.498L982.008,472.498L982.918,479.011L982.944,479.011L983.854,472.498L985.895,472.498L985.895,481.598L984.543,481.598L984.543,474.708L984.517,474.708L983.477,481.598L982.281,481.598L981.241,474.708L981.215,474.708L981.215,481.598L979.967,481.598L979.967,472.498Z" style="fill:rgb(242,242,242);"/>
                <path d="M988.391,472.498L992.291,472.498L992.291,473.798L989.821,473.798L989.821,476.203L991.784,476.203L991.784,477.503L989.821,477.503L989.821,480.298L992.291,480.298L992.291,481.598L988.391,481.598L988.391,472.498Z" style="fill:rgb(242,242,242);"/>
                <path d="M994.54,472.498L996.334,472.498L997.725,477.945L997.751,477.945L997.751,472.498L999.025,472.498L999.025,481.598L997.556,481.598L995.84,474.955L995.814,474.955L995.814,481.598L994.54,481.598L994.54,472.498Z" style="fill:rgb(242,242,242);"/>
            </g>
            <g transform="matrix(1.29284,0,0,0.369637,-958.807,-158.471)">
                <path d="M898.145,472.498L899.523,472.498L900.16,479.492L900.186,479.492L900.862,472.498L902.422,472.498L903.098,479.492L903.124,479.492L903.761,472.498L904.996,472.498L904.073,481.598L902.292,481.598L901.642,475.462L901.616,475.462L900.966,481.598L899.068,481.598L898.145,472.498Z" style="fill:rgb(242,242,242);"/>
                <path d="M909.221,481.728C908.519,481.728 907.981,481.528 907.609,481.13C907.236,480.731 907.05,480.168 907.05,479.44L907.05,474.656C907.05,473.928 907.236,473.364 907.609,472.966C907.981,472.567 908.519,472.368 909.221,472.368C909.923,472.368 910.46,472.567 910.833,472.966C911.205,473.364 911.392,473.928 911.392,474.656L911.392,479.44C911.392,480.168 911.205,480.731 910.833,481.13C910.46,481.528 909.923,481.728 909.221,481.728ZM909.221,480.428C909.715,480.428 909.962,480.129 909.962,479.531L909.962,474.565C909.962,473.967 909.715,473.668 909.221,473.668C908.727,473.668 908.48,473.967 908.48,474.565L908.48,479.531C908.48,480.129 908.727,480.428 909.221,480.428Z" style="fill:rgb(242,242,242);"/>
                <path d="M913.784,472.498L915.825,472.498L916.735,479.011L916.761,479.011L917.671,472.498L919.712,472.498L919.712,481.598L918.36,481.598L918.36,474.708L918.334,474.708L917.294,481.598L916.098,481.598L915.058,474.708L915.032,474.708L915.032,481.598L913.784,481.598L913.784,472.498Z" style="fill:rgb(242,242,242);"/>
                <path d="M922.208,472.498L926.108,472.498L926.108,473.798L923.638,473.798L923.638,476.203L925.601,476.203L925.601,477.503L923.638,477.503L923.638,480.298L926.108,480.298L926.108,481.598L922.208,481.598L922.208,472.498Z" style="fill:rgb(242,242,242);"/>
                <path d="M928.357,472.498L930.151,472.498L931.542,477.945L931.568,477.945L931.568,472.498L932.842,472.498L932.842,481.598L931.373,481.598L929.657,474.955L929.631,474.955L929.631,481.598L928.357,481.598L928.357,472.498Z" style="fill:rgb(242,242,242);"/>
                <path d="M938.848,472.498L940.278,472.498L940.278,476.203L941.812,476.203L941.812,472.498L943.242,472.498L943.242,481.598L941.812,481.598L941.812,477.503L940.278,477.503L940.278,481.598L938.848,481.598L938.848,472.498Z" style="fill:rgb(242,242,242);"/>
                <path d="M947.818,481.728C947.124,481.728 946.596,481.53 946.232,481.136C945.868,480.742 945.686,480.176 945.686,479.44L945.686,472.498L947.116,472.498L947.116,479.544C947.116,479.856 947.178,480.081 947.304,480.22C947.43,480.358 947.61,480.428 947.844,480.428C948.078,480.428 948.257,480.358 948.383,480.22C948.509,480.081 948.572,479.856 948.572,479.544L948.572,472.498L949.95,472.498L949.95,479.44C949.95,480.176 949.768,480.742 949.404,481.136C949.04,481.53 948.511,481.728 947.818,481.728Z" style="fill:rgb(242,242,242);"/>
                <path d="M952.394,472.498L954.552,472.498C955.288,472.498 955.826,472.669 956.164,473.011C956.502,473.353 956.671,473.88 956.671,474.591L956.671,474.955C956.671,475.423 956.595,475.804 956.443,476.099C956.291,476.393 956.06,476.606 955.748,476.736L955.748,476.762C956.458,477.004 956.814,477.637 956.814,478.66L956.814,479.44C956.814,480.142 956.629,480.677 956.261,481.045C955.893,481.413 955.353,481.598 954.643,481.598L952.394,481.598L952.394,472.498ZM954.383,476.203C954.669,476.203 954.883,476.129 955.026,475.982C955.169,475.834 955.241,475.587 955.241,475.241L955.241,474.734C955.241,474.404 955.182,474.166 955.065,474.019C954.948,473.871 954.764,473.798 954.513,473.798L953.824,473.798L953.824,476.203L954.383,476.203ZM954.643,480.298C954.894,480.298 955.08,480.23 955.202,480.096C955.323,479.962 955.384,479.73 955.384,479.401L955.384,478.608C955.384,478.192 955.312,477.903 955.169,477.743C955.026,477.583 954.79,477.503 954.461,477.503L953.824,477.503L953.824,480.298L954.643,480.298Z" style="fill:rgb(242,242,242);"/>
            </g>
            <g transform="matrix(0.200458,0,0,0.0573133,23.2475,-16.6433)">
                <path d="M671.676,698.703L672.503,600.442C672.51,599.617 672.971,598.864 673.703,598.483L727.624,570.413C728.449,569.983 729.454,570.111 730.145,570.733L750.104,588.696L750.104,506.772C750.104,505.926 750.583,505.153 751.34,504.776L810.396,475.39C811.151,475.015 812.053,475.097 812.727,475.603L859.516,510.694C860.077,511.115 860.408,511.776 860.408,512.478L860.408,698.522L888.689,698.495C835.7,713.827 697.673,711.736 643.366,698.731L888.689,698.495L671.676,698.703ZM726.709,698.65L726.709,575.916L676.95,601.82L676.135,698.699L726.709,698.65ZM731.168,698.646L763.513,698.615L763.513,606.763L731.168,577.653L731.168,698.646ZM809.16,698.571L809.16,480.986L754.563,508.153L754.563,592.076L753.859,592.076L765.252,602.33L797.035,587.766L798.892,591.82L767.972,605.988L767.972,632.07L797.035,618.753L798.892,622.806L767.972,636.975L767.972,661.051L797.035,647.734L798.892,651.788L767.972,665.956L767.972,691.491L797.035,678.174L798.892,682.227L767.972,696.396L767.972,698.611L809.16,698.571ZM813.619,698.567L842.809,698.539L821.106,682.547L823.752,678.957L850.315,698.532L855.949,698.526L855.949,513.592L813.619,481.845L813.619,698.567ZM758.933,687.157L737.466,669.112L734.597,672.525L756.064,690.57L758.933,687.157ZM686.288,687.609L718.51,672.845L716.652,668.791L684.431,683.556L686.288,687.609ZM852.692,672.031L823.752,650.705L821.106,654.295L850.047,675.62L852.692,672.031ZM758.933,669.112L737.466,651.067L734.597,654.48L756.064,672.525L758.933,669.112ZM686.288,665.189L718.51,650.425L716.652,646.372L684.431,661.136L686.288,665.189ZM852.692,639.404L823.752,618.078L821.106,621.668L850.047,642.994L852.692,639.404ZM758.933,639.492L737.466,621.447L734.597,624.86L756.064,642.905L758.933,639.492ZM686.288,639.945L718.51,625.181L716.652,621.127L684.431,635.891L686.288,639.945ZM758.933,616.799L737.466,598.754L734.597,602.167L756.064,620.212L758.933,616.799ZM686.288,617.252L718.51,602.488L716.652,598.434L684.431,613.198L686.288,617.252ZM852.692,609.329L823.752,588.003L821.106,591.593L850.047,612.919L852.692,609.329ZM852.692,583.977L823.752,562.651L821.106,566.241L850.047,587.567L852.692,583.977ZM766.671,580.69L798.892,565.926L797.035,561.873L764.813,576.637L766.671,580.69ZM852.692,551.715L823.752,530.389L821.106,533.979L850.047,555.305L852.692,551.715ZM766.671,550.433L798.892,535.669L797.035,531.615L764.813,546.379L766.671,550.433ZM852.692,525.285L823.752,503.959L821.106,507.549L850.047,528.875L852.692,525.285ZM766.671,522.727L798.892,507.963L797.035,503.91L764.813,518.674L766.671,522.727Z" style="fill:white;"/>
            </g>
        </g>
    </g>
</svg>
